<svg fill="#FFFFFF" xmlns="http://www.w3.org/2000/svg" xmlns:xlink="http://www.w3.org/1999/xlink" version="1.1" x="0px" y="0px" viewBox="0 0 100 100" enable-background="new 0 0 100 100" xml:space="preserve"><path d="M41.373,19.132c0.299,0.726,0.684,1.135,1.177,1.25c0.098,0.023,0.196,0.034,0.294,0.034c0.787,0,1.603-0.713,2.77-1.734  c1.18-1.033,2.648-2.317,4.617-3.339c1.012-0.525,2.315-1.335,1.965-2.297c-0.594-1.628-6.053-1.193-8.029-0.752  c-0.277,0.062-0.537,0.144-0.821,0.235c-0.607,0.195-1.296,0.415-2.558,0.53c-0.552,0.05-0.938,0.26-1.145,0.625  c-0.445,0.78,0.105,1.938,0.867,3.542C40.789,17.813,41.094,18.455,41.373,19.132z M40.511,14.178  c0.034-0.059,0.174-0.106,0.367-0.124c1.372-0.125,2.148-0.374,2.772-0.573c0.254-0.082,0.486-0.156,0.734-0.212  c2.976-0.663,6.561-0.4,6.868,0.086c-0.001,0.003-0.077,0.37-1.482,1.1c-2.075,1.078-3.658,2.463-4.814,3.474  c-0.882,0.771-1.784,1.563-2.177,1.48c-0.15-0.035-0.321-0.269-0.481-0.658c-0.286-0.694-0.598-1.352-0.885-1.956  C40.928,15.775,40.325,14.505,40.511,14.178z"></path><path d="M76.63,57.753c-1.04,0.39-2.151,1.229-3.228,4.709c-0.641,2.069-0.118,2.805,0.434,3.057c0.164,0.075,0.343,0.11,0.527,0.11  c0.818,0,1.771-0.674,2.264-1.464c0.78-1.248,1.547-5.309,0.823-6.193C77.247,57.724,76.932,57.637,76.63,57.753z M75.779,63.636  c-0.432,0.691-1.257,1.096-1.527,0.974c-0.113-0.052-0.317-0.486,0.105-1.853c0.921-2.977,1.815-3.698,2.369-3.963  C76.868,59.682,76.439,62.578,75.779,63.636z"></path><path d="M51.484,15.674c-0.174,0.019-0.376,0.04-0.605,0.05h0c-0.824,0.037-1.204,0.396-1.377,0.691  c-0.251,0.428-0.232,1.02,0.05,1.582c0.167,0.333,0.514,0.517,0.965,0.517c0.058,0,0.119-0.003,0.18-0.009  c0.812-0.082,1.832-0.7,2.063-1.556c0.095-0.35,0.157-0.747-0.097-1.044C52.387,15.579,51.97,15.622,51.484,15.674z M51.797,16.688  c-0.066,0.246-0.352,0.515-0.726,0.685c-0.366,0.167-0.618,0.151-0.625,0.176c-0.124-0.247-0.156-0.499-0.081-0.627  c0.066-0.113,0.27-0.186,0.558-0.198h0c0.251-0.011,0.474-0.035,0.667-0.055c0.069-0.007,0.146-0.016,0.217-0.022  C51.805,16.659,51.801,16.673,51.797,16.688z"></path><path d="M90.347,42.762c0.23-0.957,0.416-1.941,0.503-2.972c0.458-5.392-0.803-9.74-3.749-12.924  c-1.663-1.798-3.861-3.147-6.426-4.027C73.159,14.359,62.196,9,50,9c-12.195,0-23.156,5.358-30.673,13.836  c-2.566,0.881-4.763,2.23-6.428,4.03C9.953,30.05,8.691,34.398,9.15,39.79c0.088,1.031,0.273,2.014,0.503,2.971  C9.232,45.112,9,47.529,9,50c0,22.607,18.393,41,41,41s41-18.393,41-41C91,47.529,90.768,45.113,90.347,42.762z M72.957,56.021  c0.19,1.754,0.407,3.742-0.456,4.268c-1.44,0.876-2.052,2.921-2.7,5.085c-0.326,1.089-0.663,2.216-1.104,3.128  c-0.665,1.375-1.803,2.332-2.896,2.438c-0.716,0.073-1.36-0.235-1.847-0.885c-1.443-1.925-2.438-9.576-1.498-11.532  c0.631-1.316-0.004-2.462-0.617-3.569c-0.569-1.027-1.158-2.09-0.962-3.461c0.211-1.48,0.047-2.401-0.532-2.987  c-0.483-0.49-1.192-0.67-2.161-0.67c-0.575,0-1.243,0.064-2.011,0.165c-0.943,0.122-1.841-0.155-2.674-0.828  c-1.61-1.302-2.759-3.976-3-6.978c-0.183-2.285,1.029-4.732,2.539-6.644c0.082,0.242,0.166,0.497,0.247,0.742  c1.436,4.346,4.421,13.389,14.873,18.083c1.657,0.744,3.198,1.244,4.629,1.557C72.804,54.584,72.878,55.292,72.957,56.021z   M36.306,49.907c0.644,1.801,2.082,2.615,3.35,3.334c1.383,0.783,2.23,1.327,2.227,2.568c-0.009,3.752-0.876,6.701-2.65,9.015  c-0.551,0.718-0.966,1.723-1.405,2.787c-0.69,1.671-1.404,3.4-2.639,4.018c-2.851,1.425-1.562,6.385-1.506,6.595  c0.089,0.335,0.261,0.733,0.442,1.155c0.187,0.434,0.52,1.208,0.521,1.517c-0.02,0-0.044-0.002-0.074-0.006  c-1.58-0.186-3.688-3.293-4.428-11.44c-0.636-6.994-0.954-7.417-2.195-8.079c-0.331-0.177-0.707-0.378-1.209-0.911  c-1.468-1.559-2.645-4.354-2.157-6.146c2.116-0.145,4.532-0.714,7.26-1.939c1.663-0.747,3.118-1.613,4.427-2.543  C36.28,49.856,36.297,49.883,36.306,49.907z M53.207,21.597c-0.016-0.193,0.017-0.297,0.05-0.328  c0.03-0.029,0.105-0.041,0.169-0.041c0.021,0,0.04,0.001,0.057,0.003l0.018,0.003c0.256,0.036,0.419,0.244,0.498,0.442  c-0.269-0.001-0.528-0.002-0.774-0.003C53.22,21.648,53.209,21.621,53.207,21.597z M55.818,21.457  c0.162,0.081,0.353,0.086,0.529,0.011c0.068-0.024,0.217,0,0.341,0.043c-0.104,0.058-0.201,0.116-0.296,0.174  c-0.185-0.001-0.364-0.001-0.542-0.002C55.84,21.607,55.833,21.531,55.818,21.457z M60.764,21.693c-0.695,0-1.368-0.001-2.017-0.002  c0.028-0.037,0.056-0.074,0.083-0.11c0.177-0.236,0.427-0.571,0.589-0.717C59.74,21.426,60.218,21.656,60.764,21.693z   M60.031,20.035c0.541,0.091,0.859,0.237,1.081,0.34c0.242,0.112,0.494,0.228,0.788,0.111c0.348-0.137,0.469-0.43,0.825-1.301  l0.255-0.616c0.197-0.469,0.425-0.674,0.514-0.654c0.188,0.021,0.532,0.443,0.624,0.98c0.021,0.13,0.074,0.564-0.181,0.688  l-0.395,0.194c-1.478,0.732-2.835,1.326-3.257,0.589C60.21,20.231,60.125,20.121,60.031,20.035z M85.489,44.581L72.001,25.662  c0.345-0.002,0.69-0.005,1.036-0.007c0.769-0.011,1.715,0.022,2.746,0.143L86.65,41.042C86.413,42.327,86.01,43.507,85.489,44.581z   M78.305,26.268c2.077,0.546,4.219,1.54,5.861,3.314c1.958,2.116,2.874,5.067,2.752,8.767L78.305,26.268z M31.656,21.681  c0.094-0.108,0.188-0.218,0.28-0.347c1.057-1.472,1.808-2.149,2.436-2.198c0.393-0.034,0.808,0.192,1.285,0.679l0.207,0.209  c0.514,0.518,1.068,1.081,1.361,1.669C35.454,21.692,33.58,21.689,31.656,21.681z M77.054,21.95  c-1.291-0.199-2.641-0.304-4.046-0.295c-4.173,0.031-8.313,0.039-11.909,0.038c0.95-0.063,2.044-0.602,2.888-1.02l0.386-0.19  c0.595-0.288,0.868-0.944,0.73-1.755c-0.137-0.809-0.707-1.716-1.494-1.807c-0.37-0.041-1.049,0.067-1.551,1.261l-0.258,0.624  c-0.108,0.264-0.207,0.504-0.278,0.657c-0.304-0.14-0.809-0.37-1.703-0.465c-0.61-0.065-0.979-0.45-0.962-1.002  c0.03-0.948,1.287-2.413,4.632-2.562c2.352-0.105,3.974,0.054,5.059,0.268C71.666,17.393,74.522,19.505,77.054,21.95z   M49.984,21.655c-0.074,0.001-5.016,0.038-11.684,0.039c-0.3-0.925-1.068-1.709-1.727-2.373l-0.203-0.205  c-0.177-0.18-0.353-0.334-0.528-0.465c0.846-0.133,1.488-0.455,1.779-0.606l0.306-0.155c0.794-0.399,1.614-0.812,1.575-1.529  c-0.037-0.666-0.825-1.041-1.507-1.293c-0.397-0.147-0.788-0.302-1.161-0.45c-0.663-0.262-1.247-0.49-1.758-0.642  C39.675,12.061,44.715,11,50,11c5.676,0,11.068,1.229,15.937,3.419c-0.733-0.027-1.556-0.027-2.493,0.015  c-3.768,0.168-5.537,1.948-5.586,3.53c-0.027,0.884,0.484,1.605,1.294,1.9c-0.404,0.157-0.744,0.61-1.123,1.118  c-0.073,0.097-0.149,0.198-0.227,0.299c-0.012-0.039-0.016-0.082-0.033-0.118c-0.213-0.439-0.852-0.736-1.418-0.702  c-0.023-0.16-0.043-0.365-0.057-0.509c-0.066-0.693-0.119-1.242-0.539-1.447c-0.206-0.101-0.44-0.081-0.646,0.051  c-0.885,0.563-0.704,1.49-0.497,2.231c-0.234-0.271-0.556-0.482-0.965-0.542c-0.109-0.018-0.652-0.084-1.059,0.281  c-0.199,0.179-0.424,0.524-0.377,1.143c-1.365-0.007-2.166-0.013-2.196-0.013 M33.869,14.808c0.267-0.182,1.726,0.394,2.597,0.739  c0.38,0.15,0.777,0.307,1.182,0.457c0.516,0.191,0.731,0.336,0.817,0.41c-0.174,0.173-0.692,0.434-0.986,0.581l-0.318,0.162  c-0.566,0.295-1.383,0.639-2.355,0.545c0.419-0.159,0.834-0.382,1.095-0.735c0.248-0.334,0.225-0.613,0.162-0.789  c-0.161-0.448-0.665-0.574-1.198-0.708c-0.688-0.172-1.034-0.303-1.018-0.54C33.851,14.841,33.87,14.809,33.869,14.808z   M32.855,14.981c0.017,1.011,1.1,1.293,1.764,1.46c0.094,0.024,0.211,0.053,0.316,0.083c-0.289,0.208-0.786,0.35-1.137,0.45  c-0.516,0.147-0.961,0.274-0.969,0.742c-0.007,0.373,0.308,0.561,0.615,0.681c-0.692,0.356-1.416,1.095-2.32,2.355  c-0.353,0.491-0.733,0.79-1.134,0.922c-0.319-0.002-0.638-0.003-0.958-0.005c-0.645-0.217-1.18-0.786-1.398-1.204  c0.194-0.343,1.437-1.037,2.117-1.416c1.518-0.847,2.309-1.32,2.279-1.979c-0.008-0.174-0.089-0.497-0.545-0.7  c-0.259-0.115-0.557-0.169-0.874-0.186C31.345,15.76,32.091,15.356,32.855,14.981z M28.251,17.643  c0.94-0.33,1.934-0.557,2.589-0.426c-0.356,0.277-1.067,0.673-1.577,0.958c-1.617,0.902-3.013,1.682-2.567,2.647  c0.128,0.278,0.332,0.566,0.582,0.835c-0.095-0.001-0.19-0.001-0.286-0.002c-0.069,0-0.137,0-0.207,0  c-1.325,0-2.595,0.108-3.815,0.293C24.606,20.371,26.361,18.918,28.251,17.643z M50,89c-21.505,0-39-17.495-39-39  c0-1.088,0.051-2.164,0.139-3.23c1.266,2.418,3.06,4.4,5.315,5.727c1.672,0.984,4.006,1.858,7.022,1.858  c0.026,0,0.054-0.002,0.081-0.002c-0.415,2.185,0.844,5.081,2.454,6.791c0.615,0.653,1.107,0.916,1.466,1.107  c0.771,0.411,1.059,0.564,1.67,7.287c0.972,10.692,4.035,12.194,5.308,12.345c0.07,0.008,0.136,0.012,0.198,0.012  c0.436,0,0.674-0.188,0.801-0.358c0.435-0.584,0.024-1.54-0.412-2.553c-0.167-0.388-0.324-0.754-0.395-1.019  c-0.325-1.215-0.78-4.56,0.987-5.442c1.569-0.785,2.391-2.775,3.116-4.531c0.414-1.001,0.804-1.946,1.274-2.559  c1.913-2.495,2.847-5.642,2.857-9.622c0.004-1.889-1.388-2.678-2.734-3.44c-1.171-0.664-2.383-1.351-2.901-2.801  c-0.039-0.108-0.093-0.22-0.155-0.334c6.289-4.87,8.464-11.435,9.622-14.943c0.251-0.76,0.536-1.623,0.686-1.874  c0.913-1.523,2.582-1.577,2.599-1.577c0.018,0,1.687,0.053,2.6,1.576c0.006,0.01,0.013,0.026,0.019,0.037  c-1.838,2.165-3.336,5.081-3.117,7.818c0.266,3.315,1.524,6.185,3.368,7.676c1.039,0.841,2.231,1.201,3.434,1.042  c1.654-0.219,2.854-0.264,3.33,0.217c0.329,0.332,0.411,1.033,0.253,2.143c-0.243,1.703,0.458,2.969,1.077,4.086  s0.979,1.843,0.59,2.652c-1.112,2.318-0.096,10.303,1.6,12.564c0.632,0.843,1.491,1.295,2.445,1.295  c0.099,0,0.198-0.005,0.298-0.015c1.456-0.141,2.875-1.289,3.701-2.997c0.477-0.984,0.825-2.149,1.162-3.277  c0.565-1.888,1.15-3.841,2.262-4.518c1.406-0.855,1.165-3.079,0.931-5.229c-0.066-0.609-0.13-1.223-0.156-1.788  c0.964,0.158,1.874,0.231,2.729,0.231c3.016,0,5.351-0.874,7.022-1.857c2.249-1.324,4.041-3.299,5.306-5.709  C88.94,47.849,89,48.917,89,50C89,71.505,71.505,89,50,89z"></path></svg>