<?xml version="1.0" encoding="utf-8"?>
<!-- Generator: Adobe Illustrator 21.0.0, SVG Export Plug-In . SVG Version: 6.00 Build 0)  -->
<svg version="1.1" id="Layer_1" xmlns="http://www.w3.org/2000/svg" xmlns:xlink="http://www.w3.org/1999/xlink" x="0px" y="0px"
	 viewBox="0 0 100 100" style="enable-background:new 0 0 100 100;" xml:space="preserve">
<style type="text/css">
	.st0{fill:#FFFFFF;}
</style>
<path class="st0" d="M42,21.2c0.3,0.7,0.6,1.1,1.1,1.2c0.1,0,0.2,0,0.3,0c0.7,0,1.5-0.7,2.6-1.6c1.1-1,2.5-2.2,4.3-3.1
	c0.9-0.5,2.2-1.2,1.8-2.1c-0.6-1.5-5.6-1.1-7.5-0.7c-0.3,0.1-0.5,0.1-0.8,0.2c-0.6,0.2-1.2,0.4-2.4,0.5c-0.5,0-0.9,0.2-1.1,0.6
	c-0.4,0.7,0.1,1.8,0.8,3.3C41.4,20,41.7,20.6,42,21.2z M41.2,16.6c0-0.1,0.2-0.1,0.3-0.1c1.3-0.1,2-0.3,2.6-0.5
	c0.2-0.1,0.5-0.1,0.7-0.2c2.8-0.6,6.1-0.4,6.4,0.1c0,0-0.1,0.3-1.4,1c-1.9,1-3.4,2.3-4.5,3.2c-0.8,0.7-1.7,1.5-2,1.4
	c-0.1,0-0.3-0.3-0.4-0.6c-0.3-0.6-0.6-1.3-0.8-1.8C41.5,18.1,41,16.9,41.2,16.6z"/>
<path class="st0" d="M74.8,57.2c-1,0.4-2,1.1-3,4.4c-0.6,1.9-0.1,2.6,0.4,2.9c0.2,0.1,0.3,0.1,0.5,0.1c0.8,0,1.7-0.6,2.1-1.4
	c0.7-1.2,1.4-5,0.8-5.8C75.4,57.2,75.1,57.1,74.8,57.2z M74,62.7c-0.4,0.6-1.2,1-1.4,0.9c-0.1,0-0.3-0.5,0.1-1.7
	c0.9-2.8,1.7-3.4,2.2-3.7C75.1,59,74.7,61.7,74,62.7z"/>
<path class="st0" d="M51.4,18c-0.2,0-0.4,0-0.6,0l0,0c-0.8,0-1.1,0.4-1.3,0.6c-0.2,0.4-0.2,1,0,1.5c0.2,0.3,0.5,0.5,0.9,0.5
	c0.1,0,0.1,0,0.2,0c0.8-0.1,1.7-0.7,1.9-1.5c0.1-0.3,0.1-0.7-0.1-1C52.2,17.9,51.8,17.9,51.4,18z M51.7,18.9
	c-0.1,0.2-0.3,0.5-0.7,0.6c-0.3,0.2-0.6,0.1-0.6,0.2c-0.1-0.2-0.1-0.5-0.1-0.6c0.1-0.1,0.3-0.2,0.5-0.2l0,0c0.2,0,0.4,0,0.6-0.1
	C51.5,18.9,51.6,18.9,51.7,18.9C51.7,18.9,51.7,18.9,51.7,18.9z"/>
<path class="st0" d="M87.6,43.3c0.2-0.9,0.4-1.8,0.5-2.8c0.4-5-0.7-9.1-3.5-12.1c-1.6-1.7-3.6-2.9-6-3.8c-7-7.9-17.2-12.9-28.6-12.9
	c-11.4,0-21.6,5-28.6,12.9c-2.4,0.8-4.4,2.1-6,3.8c-2.7,3-3.9,7-3.5,12.1c0.1,1,0.3,1.9,0.5,2.8c-0.4,2.2-0.6,4.4-0.6,6.8
	c0,21.1,17.2,38.2,38.2,38.2S88.2,71.1,88.2,50C88.2,47.7,88,45.4,87.6,43.3z M71.4,55.6c0.2,1.6,0.4,3.5-0.4,4
	c-1.3,0.8-1.9,2.7-2.5,4.7c-0.3,1-0.6,2.1-1,2.9c-0.6,1.3-1.7,2.2-2.7,2.3c-0.7,0.1-1.3-0.2-1.7-0.8c-1.3-1.8-2.3-8.9-1.4-10.8
	c0.6-1.2,0-2.3-0.6-3.3c-0.5-1-1.1-1.9-0.9-3.2c0.2-1.4,0-2.2-0.5-2.8c-0.5-0.5-1.1-0.6-2-0.6c-0.5,0-1.2,0.1-1.9,0.2
	c-0.9,0.1-1.7-0.1-2.5-0.8c-1.5-1.2-2.6-3.7-2.8-6.5c-0.2-2.1,1-4.4,2.4-6.2c0.1,0.2,0.2,0.5,0.2,0.7c1.3,4.1,4.1,12.5,13.9,16.9
	c1.5,0.7,3,1.2,4.3,1.5C71.3,54.3,71.3,54.9,71.4,55.6z M37.2,49.9c0.6,1.7,1.9,2.4,3.1,3.1c1.3,0.7,2.1,1.2,2.1,2.4
	c0,3.5-0.8,6.2-2.5,8.4c-0.5,0.7-0.9,1.6-1.3,2.6c-0.6,1.6-1.3,3.2-2.5,3.7c-2.7,1.3-1.5,6-1.4,6.1c0.1,0.3,0.2,0.7,0.4,1.1
	c0.2,0.4,0.5,1.1,0.5,1.4c0,0,0,0-0.1,0c-1.5-0.2-3.4-3.1-4.1-10.7c-0.6-6.5-0.9-6.9-2-7.5c-0.3-0.2-0.7-0.4-1.1-0.8
	c-1.4-1.5-2.5-4.1-2-5.7c2-0.1,4.2-0.7,6.8-1.8C34.6,51.5,36,50.7,37.2,49.9C37.2,49.9,37.2,49.9,37.2,49.9z M53,23.5
	c0-0.2,0-0.3,0-0.3c0,0,0.1,0,0.2,0c0,0,0,0,0.1,0l0,0c0.2,0,0.4,0.2,0.5,0.4C53.5,23.6,53.2,23.6,53,23.5C53,23.6,53,23.5,53,23.5z
	 M55.4,23.4c0.2,0.1,0.3,0.1,0.5,0c0.1,0,0.2,0,0.3,0c-0.1,0.1-0.2,0.1-0.3,0.2c-0.2,0-0.3,0-0.5,0C55.4,23.5,55.4,23.5,55.4,23.4z
	 M60,23.6c-0.6,0-1.3,0-1.9,0c0,0,0.1-0.1,0.1-0.1c0.2-0.2,0.4-0.5,0.5-0.7C59.1,23.4,59.5,23.6,60,23.6z M59.4,22.1
	c0.5,0.1,0.8,0.2,1,0.3c0.2,0.1,0.5,0.2,0.7,0.1c0.3-0.1,0.4-0.4,0.8-1.2l0.2-0.6c0.2-0.4,0.4-0.6,0.5-0.6c0.2,0,0.5,0.4,0.6,0.9
	c0,0.1,0.1,0.5-0.2,0.6l-0.4,0.2c-1.4,0.7-2.6,1.2-3,0.5C59.5,22.2,59.4,22.1,59.4,22.1z M83.1,44.9L70.5,27.3c0.3,0,0.6,0,1,0
	c0.7,0,1.6,0,2.6,0.1l10.1,14.2C84,42.8,83.6,43.9,83.1,44.9z M76.4,27.9c1.9,0.5,3.9,1.4,5.5,3.1c1.8,2,2.7,4.7,2.6,8.2L76.4,27.9z
	 M32.9,23.6c0.1-0.1,0.2-0.2,0.3-0.3c1-1.4,1.7-2,2.3-2c0.4,0,0.8,0.2,1.2,0.6l0.2,0.2c0.5,0.5,1,1,1.3,1.6
	C36.4,23.6,34.7,23.6,32.9,23.6z M75.2,23.8c-1.2-0.2-2.5-0.3-3.8-0.3c-3.9,0-7.8,0-11.1,0c0.9-0.1,1.9-0.6,2.7-1l0.4-0.2
	c0.6-0.3,0.8-0.9,0.7-1.6c-0.1-0.8-0.7-1.6-1.4-1.7c-0.3,0-1,0.1-1.4,1.2L61,20.9c-0.1,0.2-0.2,0.5-0.3,0.6
	c-0.3-0.1-0.8-0.3-1.6-0.4c-0.6-0.1-0.9-0.4-0.9-0.9c0-0.9,1.2-2.3,4.3-2.4c2.2-0.1,3.7,0.1,4.7,0.2C70.2,19.6,72.9,21.6,75.2,23.8z
	 M50,23.6c-0.1,0-4.7,0-10.9,0c-0.3-0.9-1-1.6-1.6-2.2l-0.2-0.2c-0.2-0.2-0.3-0.3-0.5-0.4c0.8-0.1,1.4-0.4,1.7-0.6l0.3-0.1
	c0.7-0.4,1.5-0.8,1.5-1.4c0-0.6-0.8-1-1.4-1.2c-0.4-0.1-0.7-0.3-1.1-0.4c-0.6-0.2-1.2-0.5-1.6-0.6c4.3-1.8,9-2.8,13.9-2.8
	c5.3,0,10.3,1.1,14.9,3.2c-0.7,0-1.5,0-2.3,0c-3.5,0.2-5.2,1.8-5.2,3.3c0,0.8,0.5,1.5,1.2,1.8c-0.4,0.1-0.7,0.6-1,1
	c-0.1,0.1-0.1,0.2-0.2,0.3c0,0,0-0.1,0-0.1c-0.2-0.4-0.8-0.7-1.3-0.7c0-0.1,0-0.3-0.1-0.5c-0.1-0.6-0.1-1.2-0.5-1.3
	c-0.2-0.1-0.4-0.1-0.6,0c-0.8,0.5-0.7,1.4-0.5,2.1c-0.2-0.3-0.5-0.4-0.9-0.5c-0.1,0-0.6-0.1-1,0.3c-0.2,0.2-0.4,0.5-0.4,1.1
	C50.8,23.6,50,23.6,50,23.6 M35,17.2c0.2-0.2,1.6,0.4,2.4,0.7c0.4,0.1,0.7,0.3,1.1,0.4c0.5,0.2,0.7,0.3,0.8,0.4
	c-0.2,0.2-0.6,0.4-0.9,0.5L38,19.4c-0.5,0.3-1.3,0.6-2.2,0.5c0.4-0.1,0.8-0.4,1-0.7c0.2-0.3,0.2-0.6,0.2-0.7
	c-0.2-0.4-0.6-0.5-1.1-0.7c-0.6-0.2-1-0.3-0.9-0.5C34.9,17.2,35,17.2,35,17.2z M34,17.3c0,0.9,1,1.2,1.6,1.4c0.1,0,0.2,0,0.3,0.1
	c-0.3,0.2-0.7,0.3-1.1,0.4c-0.5,0.1-0.9,0.3-0.9,0.7c0,0.3,0.3,0.5,0.6,0.6c-0.6,0.3-1.3,1-2.2,2.2c-0.3,0.5-0.7,0.7-1.1,0.9
	c-0.3,0-0.6,0-0.9,0c-0.6-0.2-1.1-0.7-1.3-1.1c0.2-0.3,1.3-1,2-1.3c1.4-0.8,2.2-1.2,2.1-1.8c0-0.2-0.1-0.5-0.5-0.7
	c-0.2-0.1-0.5-0.2-0.8-0.2C32.6,18.1,33.3,17.7,34,17.3z M29.7,19.8c0.9-0.3,1.8-0.5,2.4-0.4c-0.3,0.3-1,0.6-1.5,0.9
	c-1.5,0.8-2.8,1.6-2.4,2.5c0.1,0.3,0.3,0.5,0.5,0.8c-0.1,0-0.2,0-0.3,0c-0.1,0-0.1,0-0.2,0c-1.2,0-2.4,0.1-3.6,0.3
	C26.3,22.4,28,21,29.7,19.8z M50,86.4c-20.1,0-36.4-16.3-36.4-36.4c0-1,0-2,0.1-3c1.2,2.3,2.9,4.1,5,5.3c1.6,0.9,3.7,1.7,6.5,1.7
	c0,0,0.1,0,0.1,0c-0.4,2,0.8,4.7,2.3,6.3c0.6,0.6,1,0.9,1.4,1c0.7,0.4,1,0.5,1.6,6.8c0.9,10,3.8,11.4,4.9,11.5c0.1,0,0.1,0,0.2,0
	c0.4,0,0.6-0.2,0.7-0.3c0.4-0.5,0-1.4-0.4-2.4c-0.2-0.4-0.3-0.7-0.4-1c-0.3-1.1-0.7-4.3,0.9-5.1c1.5-0.7,2.2-2.6,2.9-4.2
	c0.4-0.9,0.7-1.8,1.2-2.4c1.8-2.3,2.7-5.3,2.7-9c0-1.8-1.3-2.5-2.5-3.2c-1.1-0.6-2.2-1.3-2.7-2.6c0-0.1-0.1-0.2-0.1-0.3
	c5.9-4.5,7.9-10.7,9-13.9c0.2-0.7,0.5-1.5,0.6-1.7c0.9-1.4,2.4-1.5,2.4-1.5c0,0,1.6,0,2.4,1.5c0,0,0,0,0,0c-1.7,2-3.1,4.7-2.9,7.3
	c0.2,3.1,1.4,5.8,3.1,7.2c1,0.8,2.1,1.1,3.2,1c1.5-0.2,2.7-0.2,3.1,0.2c0.3,0.3,0.4,1,0.2,2c-0.2,1.6,0.4,2.8,1,3.8s0.9,1.7,0.6,2.5
	c-1,2.2-0.1,9.6,1.5,11.7c0.6,0.8,1.4,1.2,2.3,1.2c0.1,0,0.2,0,0.3,0c1.4-0.1,2.7-1.2,3.5-2.8c0.4-0.9,0.8-2,1.1-3.1
	c0.5-1.8,1.1-3.6,2.1-4.2c1.3-0.8,1.1-2.9,0.9-4.9c-0.1-0.6-0.1-1.1-0.1-1.7c0.9,0.1,1.7,0.2,2.5,0.2c2.8,0,5-0.8,6.5-1.7
	c2.1-1.2,3.8-3.1,4.9-5.3c0.1,1,0.1,2,0.1,3C86.4,70.1,70.1,86.4,50,86.4z"/>
</svg>
