<?xml version="1.0" encoding="utf-8"?>
<!-- Generator: Adobe Illustrator 21.0.0, SVG Export Plug-In . SVG Version: 6.00 Build 0)  -->
<svg version="1.1" id="Layer_1" xmlns="http://www.w3.org/2000/svg" xmlns:xlink="http://www.w3.org/1999/xlink" x="0px" y="0px"
	 viewBox="0 0 100 100" style="enable-background:new 0 0 100 100;" xml:space="preserve">
<style type="text/css">
	.st0{fill:none;stroke:#FFFFFF;stroke-width:2;stroke-miterlimit:10;}
	.st1{fill:#FFFFFF;}
</style>
<g>
	<path class="st0" d="M21.8,44.5c-1.3-2.9-1.8-4-1.5-8.3c0.5-7,3.5-13.1,7.2-17.2c4.8-5.4,13.9-7.9,22.9-7.9l-3.7,23
		c-6.4,1.5-11.2,7.1-11.2,13.9c0,7.9,6.5,14.3,14.5,14.3c8,0,14.5-6.4,14.5-14.3c0-5-2.7-9.5-6.7-12l3.8-23.4
		c4.1,1.1,7.9,2.9,10.6,5.3c5.3,4.5,10.8,11.5,11,20.5c0.2,11.3-4.9,18.6-9.6,25.7c-1.5,2.3-3.6,5-3.9,7.7
		c-0.8,5.7,0.1,10.3,2.5,13.9c1.7,2.5,3.2,4.7,4.9,6.7H38.7c1.9-3.4,2.6-9.1-0.1-9.1c-3.9,0.1-6.7,1-10.6,0.5
		c-2.9-0.4-4.7-1.2-5.3-3.9c-0.7-3.1,1.1-3.5,0.8-5c-0.4-2.1-1.7-3.2-2.4-5.6c-0.9-3.3,0.8-5.3-0.7-6c-1.9-1.2-3.5-1.1-5.2-2.7
		C12.6,58.1,23.3,48.2,21.8,44.5z"/>
	<g>
		<g>
			<path class="st1" d="M49.4,51.9l-1-1.4c0,0-0.1,0-0.1,0.1c-3,2.1-6.3,4.7-6.8,8c0,0.2,0,0.4,0.1,0.6c0.1,0.2,0.3,0.3,0.6,0.3
				c0.2,0,0.4,0,0.6-0.1c0.2-0.1,0.3-0.3,0.3-0.5C43.6,56.2,46.6,53.9,49.4,51.9C49.3,51.9,49.4,51.9,49.4,51.9z"/>
			<path class="st1" d="M49.6,20.5c0.1-0.5-0.2-0.9-0.7-1c-0.4-0.1-0.9,0.2-1,0.7c-0.8,5,2.1,8.1,4.9,11.2c2.7,3,5.2,5.8,4.5,10
				c-0.5,2.8-3.5,5.2-6.3,7.2c-0.1,0-0.1,0.1-0.2,0.1l1,1.4c0.1,0,0.1-0.1,0.2-0.1c3.1-2.2,6.4-4.8,7-8.3c0.9-5.1-2.1-8.3-4.9-11.5
				C51.4,27.4,48.9,24.7,49.6,20.5z"/>
			<path class="st1" d="M46.3,39.6c0.4-2.4,1.6-4.1,3.8-5.7c0.8-0.6,1.8-1.1,2.7-1.6L51.6,31c-0.8,0.5-1.7,1-2.5,1.5
				c-2.6,1.9-4,4-4.5,6.8c-0.6,3.8,2.2,7.7,4.9,11.5c2.4,3.4,5,6.9,4.5,9.8c-0.1,0.5,0.2,0.9,0.7,1c0.2,0,0.4,0,0.6-0.1
				c0.2-0.1,0.3-0.3,0.3-0.6c0.6-3.6-2.1-7.4-4.8-11.1C48.3,46.4,45.7,42.8,46.3,39.6z"/>
			<path class="st1" d="M60.2,20.4c-0.5,0-0.8,0.4-0.8,0.9c0.1,2.4-0.8,4.4-2.7,6.4c-0.7,0.7-1.4,1.3-2.2,2l1.4,1
				c0.7-0.6,1.4-1.2,2-1.8c2.2-2.3,3.2-4.7,3.1-7.6c0-0.2-0.1-0.4-0.3-0.6C60.6,20.4,60.4,20.3,60.2,20.4z"/>
			<path class="st1" d="M48.5,45c0,0.4,0.2,0.7,0.6,0.7L53,46c0.2,0,0.3,0,0.4-0.1c0.1-0.1,0.3-0.3,0.3-0.5c0-0.4-0.2-0.7-0.6-0.7
				l-3.9-0.3C48.8,44.4,48.5,44.7,48.5,45z"/>
			<path class="st1" d="M55,43.9c0.1-0.1,0.2-0.3,0.3-0.4c0-0.3-0.2-0.7-0.5-0.7l-6.5-0.8c-0.3,0-0.7,0.2-0.7,0.5
				c0,0.3,0.2,0.7,0.5,0.7l6.5,0.8C54.7,44,54.9,44,55,43.9z"/>
			<path class="st1" d="M56.2,41.9c0.1-0.1,0.2-0.2,0.3-0.4c0.1-0.3-0.2-0.7-0.5-0.7l-8.2-1.3c-0.3-0.1-0.7,0.2-0.7,0.5
				c-0.1,0.3,0.2,0.7,0.5,0.7l8.2,1.3C55.9,42.1,56,42,56.2,41.9z"/>
			<path class="st1" d="M56.3,39.8c0.1-0.1,0.2-0.2,0.3-0.4c0.1-0.3-0.2-0.7-0.5-0.7l-7.4-1.2c-0.3-0.1-0.7,0.2-0.7,0.5
				c-0.1,0.3,0.2,0.7,0.5,0.7l7.4,1.2C56,39.9,56.2,39.9,56.3,39.8z"/>
			<path class="st1" d="M55.9,37c0.1-0.3-0.2-0.7-0.5-0.7l-5.6-0.9c-0.3-0.1-0.7,0.2-0.7,0.5c-0.1,0.3,0.2,0.7,0.5,0.7l5.6,0.9
				c0.2,0,0.3,0,0.5-0.1C55.8,37.3,55.9,37.2,55.9,37z"/>
			<path class="st1" d="M53.6,33.8l-1.7-0.3c-0.3-0.1-0.7,0.2-0.7,0.5c-0.1,0.3,0.2,0.7,0.5,0.7l1.7,0.3c0.2,0,0.3,0,0.5-0.1
				c0.1-0.1,0.2-0.2,0.3-0.4C54.2,34.2,54,33.8,53.6,33.8z"/>
			<path class="st1" d="M52.6,59.1l-7.4-1.2c-0.3-0.1-0.7,0.2-0.7,0.5c-0.1,0.3,0.2,0.7,0.5,0.7l7.4,1.2c0.2,0,0.3,0,0.5-0.1
				c0.1-0.1,0.2-0.2,0.3-0.4C53.2,59.4,52.9,59.1,52.6,59.1z"/>
			<path class="st1" d="M45.6,56.4c-0.1,0.3,0.2,0.7,0.5,0.7l5.6,0.9c0.2,0,0.3,0,0.5-0.1c0.1-0.1,0.2-0.2,0.3-0.4
				c0.1-0.3-0.2-0.7-0.5-0.7l-5.6-0.9C46,55.8,45.7,56,45.6,56.4z"/>
			<path class="st1" d="M50.4,55.4c0.1-0.1,0.2-0.2,0.3-0.4c0.1-0.3-0.2-0.7-0.5-0.7L48.5,54c-0.3-0.1-0.7,0.2-0.7,0.5
				c-0.1,0.3,0.2,0.7,0.5,0.7l1.7,0.3C50.1,55.5,50.3,55.5,50.4,55.4z"/>
			<path class="st1" d="M50.3,22.1c-0.1,0.3,0.2,0.7,0.5,0.7l7.4,1.2c0.2,0,0.3,0,0.5-0.1c0.1-0.1,0.2-0.2,0.3-0.4
				c0.1-0.3-0.2-0.7-0.5-0.7L51,21.6C50.7,21.6,50.4,21.8,50.3,22.1z"/>
			<path class="st1" d="M57.5,26c0.1-0.1,0.2-0.2,0.3-0.4c0.1-0.3-0.2-0.7-0.5-0.7L51.7,24c-0.3-0.1-0.7,0.2-0.7,0.5
				c-0.1,0.3,0.2,0.7,0.5,0.7l5.6,0.9C57.2,26.1,57.4,26.1,57.5,26z"/>
			<path class="st1" d="M52.7,27c-0.1,0.3,0.2,0.7,0.5,0.7l1.7,0.3c0.2,0,0.3,0,0.5-0.1c0.1-0.1,0.2-0.2,0.3-0.4
				c0.1-0.3-0.2-0.7-0.5-0.7l-1.7-0.3C53.1,26.4,52.8,26.6,52.7,27z"/>
		</g>
		<g>
			<path class="st1" d="M55.5,14l-0.9-1.2c0,0,0,0-0.1,0c-2.6,1.9-5.5,4.1-6,6.9c0,0.2,0,0.4,0.1,0.6c0.1,0.2,0.3,0.3,0.5,0.3
				c0.2,0,0.4,0,0.6-0.1c0.2-0.1,0.3-0.3,0.3-0.5C50.4,17.8,53.1,15.7,55.5,14C55.4,14,55.5,14,55.5,14z"/>
			<path class="st1" d="M55.1,12.4c0,0,0.3,0.4,0.5,0.6c2.1,2.9,4.3,6,3.9,8.5c-0.1,0.4,0.2,0.8,0.6,0.9c0.2,0,0.4,0,0.6-0.1
				c0.2-0.1,0.3-0.3,0.3-0.5c0.5-3.2-1.9-6.5-4.2-9.7c0-0.1-0.2-0.2-0.5-0.2C55.8,12.1,55.1,12.4,55.1,12.4z"/>
			<path class="st1" d="M58.3,20.3l-6.5-1c-0.3,0-0.6,0.2-0.6,0.5c0,0.3,0.2,0.6,0.5,0.6l6.5,1c0.2,0,0.3,0,0.4-0.1
				c0.1-0.1,0.2-0.2,0.2-0.4C58.8,20.6,58.6,20.3,58.3,20.3z"/>
			<path class="st1" d="M52.2,17.9c0,0.3,0.2,0.6,0.5,0.6l4.9,0.8c0.1,0,0.3,0,0.4-0.1c0.1-0.1,0.2-0.2,0.2-0.4
				c0-0.3-0.2-0.6-0.5-0.6l-4.9-0.8C52.5,17.4,52.3,17.6,52.2,17.9z"/>
			<path class="st1" d="M56.4,17c0.1-0.1,0.2-0.2,0.2-0.4c0-0.3-0.2-0.6-0.5-0.6l-1.5-0.2c-0.3,0-0.6,0.2-0.6,0.5
				c0,0.3,0.2,0.6,0.5,0.6l1.5,0.2C56.1,17.2,56.3,17.1,56.4,17z"/>
		</g>
	</g>
</g>
</svg>
