<svg fill="#FFFFFF" xmlns:dc="http://purl.org/dc/elements/1.1/" xmlns:cc="http://creativecommons.org/ns#" xmlns:rdf="http://www.w3.org/1999/02/22-rdf-syntax-ns#" xmlns:svg="http://www.w3.org/2000/svg" xmlns="http://www.w3.org/2000/svg" version="1.1" viewBox="0 0 100 100" x="0px" y="0px"><g transform="translate(0,-952.36216)"><path d="m 86.361383,962.69594 a 20.103843,20.103843 0 0 0 -27.100824,-0.16083 l 29.826543,26.54288 A 20.103843,20.103843 0 0 0 86.361383,962.6955 Z m -0.236689,29.72823 -29.820132,-26.53708 a 20.103843,20.103843 0 0 0 2.76086,26.33157 20.103843,20.103843 0 0 0 27.059272,0.20551 z m -14.760223,9.53773 a 24.571363,24.571363 0 0 1 -15.331932,-6.46274 24.571363,24.571363 0 0 1 -7.654793,-14.7665 l -41.1762929,51.74604 0.879673,14.8835 14.9067579,-0.2859 48.376587,-45.1126 z m -24.612148,-6.29699 9.840894,9.09899 -12.131539,13.1212 -9.840893,-9.0986 12.131538,-13.12159 z" style="opacity:1;fill:#FFFFFF;fill-opacity:1;stroke:none;stroke-width:2;stroke-linecap:round;stroke-linejoin:round;stroke-miterlimit:4;stroke-dasharray:none;stroke-dashoffset:0;stroke-opacity:1"></path></g></svg>