<?xml version="1.0" encoding="utf-8"?>
<!-- Generator: Adobe Illustrator 21.0.0, SVG Export Plug-In . SVG Version: 6.00 Build 0)  -->
<svg version="1.1" id="Layer_1" xmlns="http://www.w3.org/2000/svg" xmlns:xlink="http://www.w3.org/1999/xlink" x="0px" y="0px"
	 viewBox="0 0 100 100" style="enable-background:new 0 0 100 100;" xml:space="preserve">
<style type="text/css">
	.st0{fill:#FFFFFF;}
</style>
<g>
	<g>
		<path class="st0" d="M24.4,67.6c0.9,0,2.1-0.5,2.8-2.5c1.6,1.8,3.4,3.4,5.1,3.4c0.3,0,0.6-0.1,0.8-0.1c3,6.2,9.4,10.3,16.5,10.3
			c7.2,0,13.5-4.1,16.5-10.3c0.4,0.3,0.9,0.4,1.4,0.4c1.6,0,3.5-1.5,5.1-3.4c0.7,2,1.9,2.5,2.8,2.5h0c1.3,0,2.6-1,3.9-3.1
			c3.4-5.5,6.5-17.9,3.5-23.9c-0.5-0.9-1-1.8-1.7-2.7c-0.6-1.1-1.2-2.1-1.9-3c-1.4-10.4-10.4-18.3-21-18.3c-0.5,0-0.9-0.3-1.6-1.2
			c-0.7-0.8-1.6-2-3.2-2c-0.3,0-0.5,0-0.8,0.1c-0.4-0.1-0.8-0.2-1.2-0.2c-1.8,0-3.8,0.9-5.8,1.7c-1.5,0.6-3.2,1.4-4.2,1.4
			c-10.6,0-19.6,7.8-21,18.3c-0.7,0.9-1.4,1.9-1.9,3c-0.7,0.9-1.2,1.8-1.7,2.7c-3,6,0.1,18.4,3.5,23.9
			C21.8,66.6,23.1,67.6,24.4,67.6z M64.6,62.9l0,0.2c-1.4,7.1-7.6,12.3-14.8,12.3c-6.8,0-12.7-4.6-14.5-11c0-0.3,0-0.6,0-0.9l0-0.4
			L35,62.6c-0.5-1-0.9-2-1.3-3l-0.5-1.2l-0.3,0l0,0l-1.2,0.2c-1-0.1-2.4-2.2-2.4-5.3c0-2.8,1.1-4.7,2.1-5.2l0.8-0.4l0.1-0.9
			c1.5-10.6,8.8-18.3,17.5-18.4c8.7,0.1,16.1,7.8,17.5,18.4l0.1,0.9l0.8,0.4c1,0.5,2.1,2.5,2.1,5.2c0,3.1-1.4,5.2-2.4,5.3l-1.2-0.2
			l0,0l-0.3,0L66,59.6c-0.4,1-0.8,2-1.3,3.1L64.6,62.9z M20,42.2c0.4-0.8,0.9-1.5,1.5-2.3l0.2-0.3c0.4-0.7,0.8-1.4,1.2-2
			c0.2,0,0.5-0.1,0.7-0.3l6.3-4.7c0.7-0.6,0.9-1.6,0.3-2.3c-0.6-0.7-1.6-0.9-2.3-0.3l-3.1,2.3C27,25.1,33.7,20,41.6,20
			c1.6,0,3.5-0.8,5.5-1.6c1.6-0.7,3.4-1.4,4.5-1.4c0.3,0,0.4,0,0.5,0.1l0.7,0.3l0.7-0.3c0,0,0,0,0.1,0c0.2,0.1,0.5,0.5,0.7,0.7
			c0.8,1,2,2.5,4.1,2.5c7.9,0,14.7,5.1,17,12.3l-3.1-1.8c-0.8-0.5-1.8-0.2-2.3,0.6c-0.5,0.8-0.2,1.8,0.6,2.3l6,3.5
			c0.6,0.8,1.2,1.7,1.7,2.7l0.2,0.3c0.6,0.8,1.1,1.5,1.5,2.3c0.7,1.4,0.9,3.5,0.9,5.7c-1-1.1-2.3-1.8-3.7-1.8
			c-0.9,0-1.7,0.7-1.7,1.7c0,0.9,0.7,1.7,1.7,1.7c1.3,0,2.7,2.2,2.7,5.1c-0.3,1.2-0.7,2.5-1.1,3.6c-1.2,3.3-2.3,5.2-3,5.9
			c0-0.1-0.1-0.3-0.1-0.4c-0.2-0.9-0.5-1.7-0.8-2.5l-1.1-2.9L72,60.9c-1.7,2.5-3.1,3.7-3.9,4.3c0-0.1,0-0.3,0-0.4c0-0.3,0-0.6,0-1
			c0.3-0.7,0.6-1.3,0.9-2c2.9-0.6,5-4.1,5-8.6c0-3.3-1.3-6.3-3.2-7.7C68.9,33.6,60.2,25,50,25c-0.1,0-0.1,0-0.2,0c0,0-0.1,0-0.1,0
			c-10.2,0-18.9,8.6-20.8,20.5c-1.9,1.4-3.2,4.4-3.2,7.7c0,4.4,2.1,8,5,8.6c0.3,0.7,0.6,1.4,0.9,2.1c0.1,0.3,0.1,0.5,0.2,0.8
			c0,0.1,0,0.2,0,0.2c-0.8-0.5-2.1-1.8-3.9-4.3l-1.8-2.5L25.1,61c-0.3,0.8-0.6,1.6-0.8,2.5c0,0.2-0.1,0.3-0.1,0.4
			c-0.7-0.8-1.8-2.6-3-5.9c-0.4-1.1-0.7-2.2-1-3.4c0.1-3.3,1.5-5.4,2.3-5.4c0.9,0,1.7-0.7,1.7-1.7c0-0.9-0.7-1.7-1.7-1.7
			c-1.3,0-2.4,0.6-3.3,1.7C19,45.5,19.3,43.5,20,42.2z"/>
		<path class="st0" d="M43.3,46.3c0-0.9-0.7-1.7-1.7-1.7c-4.2,0-7.2,1.9-7.2,4.4c0,0.9,0.7,1.7,1.6,1.7c0.9,0,1.6-0.7,1.6-1.6
			c0.1-0.3,1.5-1.2,3.9-1.2C42.5,47.9,43.3,47.2,43.3,46.3z"/>
		<path class="st0" d="M58.4,44.6c-0.9,0-1.7,0.7-1.7,1.7c0,0.9,0.7,1.7,1.7,1.7c2.4,0,3.8,0.8,3.9,1.2c0,0.9,0.8,1.6,1.7,1.6
			c0.9,0,1.7-0.7,1.7-1.7C65.6,46.5,62.6,44.6,58.4,44.6z"/>
		<path class="st0" d="M40,51.8c0,0.9,0.7,1.7,1.7,1.7h2.8c0.9,0,1.7-0.7,1.7-1.7c0-0.9-0.7-1.7-1.7-1.7h-2.8
			C40.7,50.2,40,50.9,40,51.8z"/>
		<path class="st0" d="M55.6,53.5h2.8c0.9,0,1.7-0.7,1.7-1.7c0-0.9-0.7-1.7-1.7-1.7h-2.8c-0.9,0-1.7,0.7-1.7,1.7
			C53.9,52.8,54.7,53.5,55.6,53.5z"/>
		<path class="st0" d="M52.5,56.6c-0.3,0-1.2,0.2-2.7,1.3c-1.5-1.2-2.3-1.3-2.7-1.3c-1.9-0.3-4.4,1.1-7.4,4c-1.1,1.1-1.1,2.8,0,3.9
			c0.5,0.6,1.3,0.8,2,0.8c0.7,0,1.4-0.3,1.9-0.8c0.3-0.3,0.7-0.7,1.1-1c0.1,4.8,1.9,9.5,5.3,9.5c3.3,0,5.1-4.5,5.3-9.1
			c0.2,0.2,0.5,0.4,0.7,0.6c0.5,0.5,1.2,0.8,1.9,0.8c0.7,0,1.4-0.3,2-0.8c1.1-1.1,1-2.8,0-3.9C56.9,57.7,54.4,56.3,52.5,56.6z
			 M50,69.7c-0.4,0-1.6-1.6-2-5.1H52C51.6,68.1,50.4,69.7,50,69.7z"/>
	</g>
</g>
</svg>
