<svg fill="#FFFFFF" xmlns:x="http://ns.adobe.com/Extensibility/1.0/" xmlns:i="http://ns.adobe.com/AdobeIllustrator/10.0/" xmlns:graph="http://ns.adobe.com/Graphs/1.0/" xmlns="http://www.w3.org/2000/svg" xmlns:xlink="http://www.w3.org/1999/xlink" version="1.1" x="0px" y="0px" viewBox="0 0 100 100" enable-background="new 0 0 100 100" xml:space="preserve"><metadata><sfw xmlns="http://ns.adobe.com/SaveForWeb/1.0/"><slices></slices><sliceSourceBounds height="16383" width="16383" x="-8141" y="-8142" bottomLeftOrigin="true"></sliceSourceBounds><optimizationSettings><targetSettings targetSettingsID="0" fileFormat="GIFFormat"><GIFFormat transparency="true" lossy="0" ditherPercent="100" rolloverMasterPalette="false" webShiftPercent="0" reductionAlgorithm="selective" ditherAlgorithm="diffusion" autoReduce="false" numColors="256" matteColor="#FFFFFF" includeCaption="false" interlaced="false" noMatteColor="false"><colorTable isExact="false"></colorTable><lockedColors></lockedColors><colorShiftEntries></colorShiftEntries></GIFFormat></targetSettings></optimizationSettings></sfw></metadata><g><g><path d="M69.264,65.427h-4.415l-0.449,0.537C60.816,70.24,55.568,72.692,50,72.692s-10.817-2.452-14.399-6.729l-0.45-0.537h-4.416    c-9.772,0-17.722,7.95-17.722,17.722v5.218h73.973v-5.218C86.986,73.377,79.036,65.427,69.264,65.427z M56.957,74.551    l-6.136,10.783l0.057,0.032h-1.685c-0.005-0.011-0.008-0.021-0.014-0.032L43.043,74.55c2.215,0.747,4.56,1.143,6.957,1.143    S54.742,75.297,56.957,74.551z M16.014,83.148c0-8.117,6.604-14.722,14.722-14.722h3.03c1.344,1.504,2.875,2.793,4.54,3.854    c0.006,0.013,0.009,0.025,0.016,0.037l7.424,13.048H16.014V83.148z M83.986,85.366H54.255l7.424-13.048l-0.022-0.013    c1.68-1.066,3.224-2.363,4.578-3.879h3.029c8.118,0,14.723,6.604,14.723,14.722V85.366z"></path><path d="M26.795,60.631c0.845,0,1.933-0.412,2.58-2.247c1.452,1.66,3.106,3.042,4.592,3.042c0.268,0,0.525-0.053,0.769-0.135    c2.753,5.592,8.506,9.332,14.985,9.332c6.491,0,12.253-3.756,15-9.367c0.376,0.241,0.815,0.375,1.28,0.375    c1.486,0,3.141-1.382,4.592-3.041c0.646,1.833,1.734,2.245,2.58,2.246h0.001c1.219,0,2.371-0.911,3.524-2.784    c3.092-5.021,5.941-16.228,3.189-21.676c-0.424-0.837-0.924-1.639-1.528-2.447c-0.503-1-1.084-1.926-1.732-2.76    c-1.315-9.478-9.431-16.57-19.054-16.57c-0.494,0-0.796-0.317-1.417-1.097c-0.613-0.769-1.452-1.82-2.897-1.82    c-0.234,0-0.474,0.029-0.714,0.089c-0.343-0.091-0.712-0.137-1.103-0.137c-1.61,0-3.455,0.777-5.239,1.529    c-1.368,0.576-2.919,1.23-3.809,1.23c-9.624,0-17.738,7.093-19.054,16.57c-0.646,0.832-1.228,1.758-1.732,2.759    c-0.605,0.811-1.105,1.612-1.528,2.449c-2.75,5.443,0.097,16.647,3.187,21.669C24.422,59.718,25.576,60.631,26.795,60.631z     M63.215,56.314l-0.038,0.196c-1.234,6.438-6.894,11.112-13.455,11.112c-6.167,0-11.534-4.129-13.183-9.971    c-0.003-0.286,0.003-0.562,0.015-0.829l0.017-0.382l-0.167-0.343c-0.448-0.918-0.843-1.838-1.176-2.731l-0.415-1.117l-0.266,0.034    l-0.013-0.035l-1.108,0.143c-0.933-0.12-2.204-1.96-2.204-4.814c0-2.501,0.985-4.308,1.912-4.738l0.743-0.345l0.111-0.812    c1.318-9.607,7.978-16.59,15.863-16.677c7.895,0.076,14.562,7.062,15.88,16.678l0.111,0.812l0.743,0.346    c0.928,0.43,1.913,2.236,1.913,4.737c0,2.854-1.271,4.694-2.197,4.814l-1.117-0.142l-0.012,0.032l-0.265-0.033l-0.416,1.116    c-0.341,0.917-0.741,1.849-1.19,2.769L63.215,56.314z M22.759,37.524c0.36-0.712,0.794-1.399,1.327-2.103l0.149-0.241    c0.318-0.644,0.684-1.229,1.068-1.787c0.208-0.044,0.411-0.116,0.592-0.253l5.678-4.289c0.661-0.499,0.792-1.44,0.292-2.102    c-0.5-0.661-1.441-0.793-2.101-0.292l-2.794,2.11c2.141-6.549,8.288-11.175,15.426-11.175c1.496,0,3.186-0.712,4.974-1.466    c1.439-0.606,3.07-1.294,4.074-1.294c0.235,0,0.363,0.039,0.43,0.071l0.639,0.313l0.646-0.296c0.023-0.011,0.043-0.019,0.06-0.024    c0.153,0.121,0.414,0.448,0.594,0.674c0.707,0.887,1.775,2.227,3.763,2.227c7.14,0,13.289,4.629,15.428,11.182l-2.804-1.619    c-0.717-0.414-1.635-0.169-2.049,0.549s-0.169,1.635,0.549,2.049l5.474,3.16c0.584,0.735,1.113,1.557,1.562,2.465l0.15,0.243    c0.532,0.702,0.967,1.391,1.327,2.103c0.65,1.288,0.858,3.135,0.771,5.186c-0.925-1.016-2.092-1.619-3.378-1.619    c-0.828,0-1.5,0.671-1.5,1.5c0,0.828,0.672,1.5,1.5,1.5c1.145,0,2.413,1.956,2.467,4.594c-0.279,1.13-0.604,2.23-0.958,3.245    c-1.061,3.031-2.104,4.706-2.714,5.386c-0.034-0.105-0.07-0.231-0.106-0.383c-0.19-0.798-0.423-1.545-0.712-2.285l-1.014-2.597    l-1.608,2.277c-1.577,2.23-2.832,3.399-3.521,3.862c-0.006-0.109-0.009-0.237-0.006-0.389c0.006-0.3,0.002-0.586-0.008-0.864    c0.285-0.598,0.552-1.2,0.797-1.801c2.608-0.521,4.558-3.744,4.558-7.765c0-3.037-1.139-5.726-2.902-7.016    C67.108,29.762,59.265,21.997,50,21.997c-0.05,0-0.099,0.008-0.148,0.008c-0.043,0-0.086-0.007-0.129-0.007    c-9.264,0-17.108,7.765-18.877,18.564c-1.763,1.29-2.901,3.978-2.901,7.016c0,4.02,1.949,7.243,4.557,7.764    c0.262,0.642,0.55,1.288,0.859,1.932c0.049,0.238,0.118,0.469,0.176,0.703c-0.001,0.072,0,0.153-0.003,0.213    c-0.69-0.463-1.945-1.633-3.52-3.861l-1.607-2.275l-1.015,2.594c-0.29,0.742-0.523,1.49-0.713,2.287    c-0.036,0.15-0.072,0.276-0.106,0.382c-0.61-0.681-1.653-2.356-2.713-5.386c-0.334-0.955-0.641-1.985-0.909-3.045    c0.05-3.025,1.333-4.877,2.042-4.877c0.829,0,1.5-0.671,1.5-1.5c0-0.828-0.671-1.5-1.5-1.5c-1.148,0-2.18,0.558-3.01,1.51    C21.914,40.544,22.128,38.772,22.759,37.524z"></path><path d="M43.896,41.24c0-0.828-0.671-1.5-1.5-1.5c-3.807,0-6.57,1.697-6.57,4.035c0,0.829,0.667,1.528,1.496,1.528    c0.829,0,1.496-0.644,1.496-1.472c0.128-0.311,1.38-1.092,3.579-1.092C43.225,42.74,43.896,42.069,43.896,41.24z"></path><path d="M57.604,39.74c-0.828,0-1.5,0.672-1.5,1.5c0,0.829,0.672,1.5,1.5,1.5c2.158,0,3.404,0.753,3.57,1.074    c0.021,0.811,0.684,1.461,1.499,1.461c0.828,0,1.5-0.671,1.5-1.5C64.174,41.438,61.411,39.74,57.604,39.74z"></path><path d="M40.896,46.311c0,0.828,0.671,1.5,1.5,1.5h2.535c0.829,0,1.5-0.672,1.5-1.5c0-0.829-0.671-1.5-1.5-1.5h-2.535    C41.567,44.811,40.896,45.481,40.896,46.311z"></path><path d="M55.069,47.811h2.535c0.828,0,1.5-0.672,1.5-1.5c0-0.829-0.672-1.5-1.5-1.5h-2.535c-0.828,0-1.5,0.671-1.5,1.5    C53.569,47.139,54.241,47.811,55.069,47.811z"></path><path d="M52.226,50.635c-0.305,0.044-1.057,0.155-2.436,1.214c-1.379-1.059-2.131-1.17-2.436-1.214    c-1.74-0.248-3.993,0.972-6.706,3.621c-0.988,0.965-1.006,2.548-0.042,3.535c0.49,0.501,1.139,0.753,1.789,0.753    c0.63,0,1.261-0.236,1.747-0.712c0.315-0.308,0.668-0.617,1.022-0.912c0.111,4.366,1.764,8.634,4.835,8.634    c2.989,0,4.639-4.043,4.827-8.284c0.21,0.186,0.418,0.375,0.611,0.564c0.486,0.473,1.116,0.709,1.745,0.709    c0.65,0,1.3-0.252,1.79-0.754c0.964-0.988,0.945-2.569-0.042-3.533C56.219,51.606,53.959,50.386,52.226,50.635z M50,62.554    c-0.318,0-1.481-1.487-1.777-4.604h3.553C51.48,61.066,50.318,62.554,50,62.554z"></path></g></g></svg>