<?xml version="1.0" encoding="utf-8"?>
<!-- Generator: Adobe Illustrator 21.0.0, SVG Export Plug-In . SVG Version: 6.00 Build 0)  -->
<svg version="1.1" id="Layer_1" xmlns="http://www.w3.org/2000/svg" xmlns:xlink="http://www.w3.org/1999/xlink" x="0px" y="0px"
	 viewBox="0 0 100 100" style="enable-background:new 0 0 100 100;" xml:space="preserve">
<style type="text/css">
	.st0{fill:#FFFFFF;}
</style>
<path class="st0" d="M83.4,36.5h-3.6C75.1,24.5,63.5,16.1,50,16.1s-25.1,8.4-29.8,20.3H18V14.6c0-0.8-0.7-1.4-1.4-1.4
	c-0.8,0-1.4,0.7-1.4,1.4v22c-2.1,0.7-2.9,2.7-2.9,4.2v14.5c0,1.8,1.2,4.4,4.4,4.4h3.6c0.8,2,1.8,4,2.9,5.8c-1.3,0.2-2.5,0.8-3.4,1.8
	c-2.3,2.3-2.3,6,0,8.2c8.5,8.9,18.4,13.3,30.3,13.3s21.9-4.4,30.3-13.4c2.3-2.3,2.3-6,0-8.2c-0.9-0.9-2.2-1.6-3.4-1.8
	c1.2-1.8,2.2-3.8,2.9-5.8h3.6c3.2,0,4.4-2.6,4.4-4.4V40.8C87.8,39.1,86.6,36.5,83.4,36.5z M50,19C66,19,79.1,32,79.1,48.1
	c0,4.5-1,8.8-2.9,12.7V40.8c0-0.5-0.3-1-0.8-1.3c-7.4-4.1-15.5-6-25.5-6s-18,1.9-25.5,6c-0.5,0.3-0.8,0.8-0.8,1.3v19.9
	c-1.8-3.9-2.9-8.2-2.9-12.7C20.9,32,33.9,19,50,19z M73.3,44.3c-1.3-0.6-2.5-1.2-3.8-1.7l0,0c-5.8-2.2-12.1-3.3-19.5-3.3
	c-7.3,0-13.7,1-19.5,3.3l0,0c-1.3,0.5-2.5,1-3.8,1.7v-2.6c6.8-3.5,14.2-5.2,23.3-5.2s16.5,1.7,23.3,5.2V44.3z M26.7,65.5V47.5
	c0.9-0.5,1.9-1,2.9-1.4c0,10.8,0.3,19.2,5,26.6C31.6,70.8,28.9,68.4,26.7,65.5z M70.3,46.1c1,0.4,1.9,0.9,2.9,1.4v18
	c-2.2,2.9-4.9,5.4-7.9,7.2C70.1,65.4,70.3,56.9,70.3,46.1z M16.5,56.8c-1.2,0-1.4-0.8-1.4-1.4V40.8c0-0.7,0.3-1.5,1.4-1.5h2.7
	C18.5,42.1,18,45,18,48.1s0.4,6,1.3,8.7H16.5z M78.2,73.4c-8,8.5-17,12.4-28.2,12.4s-20.3-4-28.2-12.5c-1.1-1.1-1.1-2.9,0-4.1
	c0.6-0.6,1.3-0.9,2.1-0.9c0.8,0,1.5,0.3,2,0.8l0.1,0.1c3.5,4,8.1,7.1,13.3,9c0.1,0.1,0.2,0.1,0.3,0.1c3.3,1.2,6.8,1.8,10.5,1.8
	c3.7,0,7.2-0.6,10.5-1.8c0.1,0,0.3-0.1,0.3-0.1c5.1-1.8,9.7-5,13.3-9l0.1-0.1c0.5-0.5,1.3-0.8,2-0.8c0.8,0,1.5,0.4,2.1,0.9
	C79.4,70.4,79.4,72.3,78.2,73.4z M84.9,55.4c0,0.7-0.3,1.5-1.4,1.5h-2.7c0.8-2.8,1.3-5.7,1.3-8.7c0-3-0.4-6-1.3-8.7h2.7
	c1.2,0,1.4,0.8,1.4,1.4V55.4z"/>
</svg>
