<?xml version="1.0" encoding="utf-8"?>
<!-- Generator: Adobe Illustrator 21.0.0, SVG Export Plug-In . SVG Version: 6.00 Build 0)  -->
<svg version="1.1" id="Layer_1" xmlns="http://www.w3.org/2000/svg" xmlns:xlink="http://www.w3.org/1999/xlink" x="0px" y="0px"
	 viewBox="0 0 100 100" style="enable-background:new 0 0 100 100;" xml:space="preserve">
<style type="text/css">
	.st0{fill:#FFFFFF;}
</style>
<path class="st0" d="M86.8,35h-4c-5.2-13.1-18-22.4-32.8-22.4S22.3,21.9,17.1,35h-2.4V10.9c0-0.9-0.7-1.6-1.6-1.6
	c-0.8,0-1.6,0.7-1.6,1.6v24.2c-2.3,0.7-3.2,3-3.2,4.6v16c0,1.9,1.3,4.8,4.8,4.8h4c0.8,2.2,1.9,4.3,3.2,6.4c-1.4,0.2-2.8,0.8-3.8,1.9
	c-2.5,2.5-2.5,6.6,0,9.1c9.3,9.8,20.3,14.6,33.4,14.6s24.1-4.8,33.3-14.7c2.5-2.5,2.5-6.6,0-9.1c-1-1-2.4-1.8-3.8-1.9
	c1.3-2,2.4-4.2,3.2-6.4h4c3.5,0,4.8-2.9,4.8-4.8V39.8C91.6,37.9,90.3,35,86.8,35z M50,15.7c17.7,0,32,14.3,32,32c0,5-1.1,9.7-3.2,14
	V39.8c0-0.6-0.3-1.1-0.8-1.4c-8.1-4.5-17.1-6.6-28-6.6s-19.8,2.1-28,6.6c-0.6,0.3-0.8,0.8-0.8,1.4v21.9c-2-4.3-3.2-9-3.2-14
	C18,30.1,32.3,15.7,50,15.7z M75.6,43.6c-1.4-0.6-2.8-1.3-4.2-1.9l0,0c-6.4-2.4-13.3-3.6-21.5-3.6c-8.1,0-15.1,1.1-21.5,3.6l0,0
	c-1.4,0.6-2.8,1.1-4.2,1.9v-2.9C31.9,36.8,40,35,50,35s18.1,1.9,25.6,5.7V43.6z M24.4,67V47.1c1-0.6,2.1-1.1,3.2-1.6
	c0,11.8,0.4,21.2,5.6,29.3C29.7,72.8,26.8,70.2,24.4,67z M72.4,45.6c1.1,0.5,2.1,1,3.2,1.6V67c-2.4,3.1-5.4,5.9-8.7,8
	C72.1,66.8,72.4,57.5,72.4,45.6z M13.2,57.4c-1.3,0-1.6-0.9-1.6-1.6v-16c0-0.7,0.3-1.7,1.6-1.7h3c-0.8,3.1-1.4,6.3-1.4,9.6
	c0,3.3,0.5,6.6,1.4,9.6H13.2z M81.1,75.7C72.3,85.1,62.4,89.4,50,89.4s-22.3-4.3-31.1-13.8c-1.2-1.2-1.2-3.2,0-4.5
	c0.6-0.6,1.5-1,2.3-1s1.7,0.3,2.2,0.8l0.1,0.1c3.9,4.4,8.9,7.9,14.6,9.9c0.1,0.1,0.2,0.1,0.4,0.1c3.6,1.3,7.5,1.9,11.6,1.9
	s8-0.6,11.6-1.9c0.1,0,0.3-0.1,0.4-0.1c5.6-2,10.6-5.5,14.6-9.9l0.1-0.1c0.6-0.6,1.4-0.8,2.2-0.8c0.8,0,1.7,0.5,2.3,1
	C82.4,72.4,82.4,74.4,81.1,75.7z M88.4,55.8c0,0.7-0.3,1.7-1.6,1.7h-3c0.8-3.1,1.4-6.3,1.4-9.6s-0.5-6.6-1.4-9.6h3
	c1.3,0,1.6,0.9,1.6,1.6V55.8z"/>
</svg>
