<?xml version="1.0" encoding="utf-8"?>
<!-- Generator: Adobe Illustrator 21.0.0, SVG Export Plug-In . SVG Version: 6.00 Build 0)  -->
<svg version="1.1" id="Layer_1" xmlns="http://www.w3.org/2000/svg" xmlns:xlink="http://www.w3.org/1999/xlink" x="0px" y="0px"
	 viewBox="0 0 100 100" style="enable-background:new 0 0 100 100;" xml:space="preserve">
<style type="text/css">
	.st0{fill:#FFFFFF;}
</style>
<path class="st0" d="M41.5,13.3c0.1,0.3,0.2,0.6,0.3,0.9c0.3-0.6,0.5-0.9,0.5-0.9c26.6,0,29.9,16.4,30.3,24.9
	c0.4,8.5,7.4,8.3,7.4,8.3c-13.9,1.6-26.6-10.1-26.6-10.1c0.8,4.7,3.7,6.7,3.7,6.7c-9.8-3.8-14.7-13.4-14.7-13.4
	c-0.1-0.4-0.2-0.8-0.3-1.1c-4.5,10.7-18.9,14.6-18.9,14.6C16.3,19.3,41.5,13.3,41.5,13.3z"/>
</svg>
